<?xml version="1.0" encoding="UTF-8" standalone="no"?>
<!-- Created with Inkscape (http://www.inkscape.org/) -->

<svg
   xmlns:dc="http://purl.org/dc/elements/1.1/"
   xmlns:cc="http://creativecommons.org/ns#"
   xmlns:rdf="http://www.w3.org/1999/02/22-rdf-syntax-ns#"
   xmlns:svg="http://www.w3.org/2000/svg"
   xmlns="http://www.w3.org/2000/svg"
   xmlns:sodipodi="http://sodipodi.sourceforge.net/DTD/sodipodi-0.dtd"
   xmlns:inkscape="http://www.inkscape.org/namespaces/inkscape"
   width="23.098125mm"
   height="19.632469mm"
   viewBox="0 0 23.098125 19.632469"
   version="1.1"
   id="svg2665"
   inkscape:version="0.92.2 (5c3e80d, 2017-08-06)"
   sodipodi:docname="cake_fancy.svg">
  <defs
     id="defs2659" />
  <sodipodi:namedview
     id="base"
     pagecolor="#ffffff"
     bordercolor="#666666"
     borderopacity="1.0"
     inkscape:pageopacity="0.0"
     inkscape:pageshadow="2"
     inkscape:zoom="1.979899"
     inkscape:cx="-18.175489"
     inkscape:cy="37.749807"
     inkscape:document-units="mm"
     inkscape:current-layer="layer1"
     showgrid="false"
     inkscape:window-width="1920"
     inkscape:window-height="1051"
     inkscape:window-x="-9"
     inkscape:window-y="-9"
     inkscape:window-maximized="1" />
  <metadata
     id="metadata2662">
    <rdf:RDF>
      <cc:Work
         rdf:about="">
        <dc:format>image/svg+xml</dc:format>
        <dc:type
           rdf:resource="http://purl.org/dc/dcmitype/StillImage" />
        <dc:title></dc:title>
      </cc:Work>
    </rdf:RDF>
  </metadata>
  <g
     inkscape:label="Layer 1"
     inkscape:groupmode="layer"
     id="layer1"
     transform="translate(-62.534251,-139.77323)">
    <path
       inkscape:connector-curvature="0"
       class="st0"
       d="m 85.579479,148.66325 c 0,-0.0265 -0.02646,-0.0529 -0.02646,-0.0794 -1.799167,-4.20687 -6.773333,-5.3975 -6.985,-5.42396 -0.07938,-0.0265 -0.132292,0 -0.211667,0 l -0.423331,0.13229 c -0.185208,-0.15875 -0.423333,-0.29104 -0.661458,-0.37041 -0.05292,-0.50271 -0.211667,-0.97896 -0.47625,-1.40229 v 0 c -0.661459,-1.0848 -1.852084,-1.74625 -3.148542,-1.74625 -0.185208,0 -0.370417,0.10583 -0.449792,0.26458 -0.47625,0.87312 -0.582083,1.93146 -0.264583,2.8575 -0.820209,0.26458 -1.42875,1.03187 -1.42875,1.93146 0,0.18521 0.02646,0.37041 0.07937,0.55562 l -8.810625,2.93688 c 0,0 0,0 0,0 -0.02646,0 -0.02646,0 -0.02646,0.0265 0,0 -0.02646,0 -0.02646,0.0264 0,0 -0.02646,0.0265 -0.02646,0.0265 0,0 -0.02646,0.0265 -0.02646,0.0265 0,0 -0.02646,0.0265 -0.02646,0.0265 0,0 -0.02646,0.0265 -0.02646,0.0265 0,0 -0.02646,0.0265 -0.02646,0.0265 0,0 0,0.0265 -0.02646,0.0265 0,0 0,0.0265 -0.02646,0.0265 0,0 0,0.0265 0,0.0265 0,0 0,0.0265 0,0.0265 0,0.0264 0,0.0264 0,0.0529 0,0 0,0 0,0.0265 v 3.22792 7.09083 c 0,0.21167 0.185208,0.39688 0.396875,0.39688 h 22.304375 c 0.211667,0 0.396875,-0.18521 0.396875,-0.39688 v -7.09083 -3.22792 c -0.02646,0.0265 -0.02646,0 -0.05292,-0.0264 z m -3.307291,2.91041 h -0.926042 c -0.211667,0 -0.396875,0.18521 -0.396875,0.39688 v 2.93687 c 0,0.3175 -0.264583,0.60854 -0.582083,0.60854 -0.3175,0 -0.582084,-0.26458 -0.582084,-0.60854 v -2.93687 c 0,-0.21167 -0.185208,-0.39688 -0.396875,-0.39688 H 66.450104 c -0.211667,0 -0.396875,0.18521 -0.396875,0.39688 v 0.9525 c 0,0.3175 -0.264583,0.60854 -0.582083,0.60854 -0.3175,0 -0.582084,-0.26458 -0.582084,-0.60854 v -0.9525 c 0,-0.21167 -0.185208,-0.39688 -0.396875,-0.39688 h -1.190625 v -2.43416 h 21.510626 v 2.43416 h -0.582084 c -0.211666,0 -0.396875,0.18521 -0.396875,0.39688 v 1.87854 c 0,0.3175 -0.264583,0.60854 -0.582083,0.60854 -0.3175,0 -0.582083,-0.26458 -0.582083,-0.60854 v -1.87854 c 0,-0.21167 -0.185209,-0.39688 -0.396875,-0.39688 z m -6.588125,-6.87916 c 0,-0.0265 0.02646,-0.0794 0.02646,-0.10584 0,-0.0265 0.02646,-0.0529 0.02646,-0.0794 0,-0.0265 0.02646,-0.0529 0.02646,-0.0794 0.02646,-0.0265 0.02646,-0.0529 0.05292,-0.0794 0,-0.0265 0.02646,-0.0265 0.02646,-0.0529 0.02646,-0.0265 0.05292,-0.0529 0.07938,-0.10583 0,0 0.02646,-0.0265 0.02646,-0.0265 0.02646,-0.0265 0.07938,-0.0529 0.105833,-0.0794 0,0 0.02646,-0.0264 0.02646,-0.0264 0.02646,-0.0265 0.07938,-0.0529 0.105833,-0.0529 0.02646,0 0.02646,-0.0265 0.05292,-0.0265 0.05292,-0.0265 0.07937,-0.0265 0.132291,-0.0529 0.02646,0 0.02646,0 0.05292,0 0.05292,0 0.132292,-0.0265 0.185208,-0.0265 0.529167,0 0.978959,0.42333 0.978959,0.97895 0,0.52917 -0.423334,0.97896 -0.978959,0.97896 -0.529166,0 -0.978958,-0.42333 -0.978958,-0.97896 0.05292,-0.0794 0.05292,-0.13229 0.05292,-0.1852 z m -1.693334,-3.81 c 0.767292,0.0794 1.481667,0.52916 1.905,1.21708 v 0 c 0.15875,0.23812 0.264584,0.52917 0.3175,0.79375 -0.02646,0 -0.02646,0 -0.05292,0.0265 -0.07938,0.0265 -0.15875,0.0529 -0.211667,0.0794 -0.02646,0 -0.05292,0.0265 -0.07937,0.0265 -0.07938,0.0265 -0.132292,0.0794 -0.211667,0.10583 -0.02646,0.0265 -0.07938,0.0529 -0.105833,0.0529 -0.05292,0.0529 -0.132292,0.0794 -0.185208,0.13229 -0.02646,0.0265 -0.05292,0.0529 -0.105834,0.0794 -0.05292,0.0265 -0.07937,0.0794 -0.105833,0.10583 -0.02646,0.0265 -0.05292,0.0265 -0.05292,0.0529 0,0 0,0 -0.02646,-0.0265 -0.05291,-0.0529 -0.105829,-0.10583 -0.158746,-0.18521 -0.02646,-0.0265 -0.02646,-0.0265 -0.05292,-0.0529 -0.07937,-0.0529 -0.132291,-0.10583 -0.211666,-0.15875 0,0 -0.02646,-0.0265 -0.02646,-0.0265 -0.07937,-0.0529 -0.15875,-0.0794 -0.238125,-0.1323 0,0 -0.02646,0 -0.02646,0 -0.07937,-0.0265 -0.185202,-0.0794 -0.264577,-0.10583 0,0 0,0 -0.02646,0 -0.317499,-0.58208 -0.343957,-1.34937 -0.07937,-1.98437 z m -0.449791,3.01625 c 0.05292,0 0.105833,0 0.15875,0.0265 0.02646,0 0.05292,0 0.07938,0.0265 0.02646,0 0.05292,0.0265 0.105833,0.0265 0.02646,0 0.05292,0.0265 0.05292,0.0265 0.05292,0.0265 0.105833,0.0529 0.132291,0.0794 0,0 0,0 0.02646,0.0265 0.05292,0.0265 0.07938,0.0529 0.105833,0.10583 0,0 0.02646,0.0265 0.02646,0.0265 0.02646,0.0265 0.05292,0.0529 0.07938,0.0794 0,0.0265 0.02646,0.0265 0.02646,0.0529 0.02646,0.0265 0.05292,0.0794 0.05292,0.10584 0,0.0265 0.02646,0.0265 0.02646,0.0529 0.05292,0.10584 0.07938,0.23813 0.07938,0.37042 0,0.52917 -0.423334,0.97896 -0.978959,0.97896 -0.529166,0 -0.978958,-0.42333 -0.978958,-0.97896 0.02643,-0.58208 0.449765,-1.00541 1.00539,-1.00541 z m 0,2.98979 c 0.635,0 1.190625,-0.29104 1.561041,-0.74084 0.370417,0.4498 0.926042,0.74084 1.561042,0.74084 1.11125,0 2.037292,-0.89959 2.037292,-2.03729 0,-0.3175 -0.07938,-0.635 -0.211667,-0.89959 l 0.05292,-0.0265 c 0.661458,0.18521 4.392083,1.29646 6.058958,4.39209 h -19.26167 l 6.614583,-2.19604 c 0.370417,0.47625 0.952501,0.76729 1.587501,0.76729 z M 63.301562,158.6645 v -6.29709 h 0.79375 v 0.55563 c 0,0.76729 0.608542,1.40229 1.375834,1.40229 0.767291,0 1.375833,-0.635 1.375833,-1.40229 v -0.55563 h 12.144375 v 2.54 c 0,0.76729 0.608542,1.40229 1.375834,1.40229 0.767291,0 1.375833,-0.635 1.375833,-1.40229 v -2.54 h 0.132292 v 1.48167 c 0,0.76729 0.608541,1.40229 1.375833,1.40229 0.767292,0 1.375833,-0.635 1.375833,-1.40229 v -1.48167 h 0.185209 v 6.29709 z"
       id="path2096"
       style="stroke-width:0.26458332" />
  </g>
</svg>
