<?xml version="1.0" encoding="UTF-8" standalone="no"?>
<svg
   xmlns:dc="http://purl.org/dc/elements/1.1/"
   xmlns:cc="http://creativecommons.org/ns#"
   xmlns:rdf="http://www.w3.org/1999/02/22-rdf-syntax-ns#"
   xmlns:svg="http://www.w3.org/2000/svg"
   xmlns="http://www.w3.org/2000/svg"
   xmlns:sodipodi="http://sodipodi.sourceforge.net/DTD/sodipodi-0.dtd"
   xmlns:inkscape="http://www.inkscape.org/namespaces/inkscape"
   version="1.0"
   width="663"
   height="527"
   viewBox="0 0 6630 5270"
   preserveAspectRatio="xMidYMid meet"
   id="svg859"
   sodipodi:docname="Screenshot_8.svg"
   inkscape:version="0.92.2 (5c3e80d, 2017-08-06)">
  <metadata
     id="metadata865">
    <rdf:RDF>
      <cc:Work
         rdf:about="">
        <dc:format>image/svg+xml</dc:format>
        <dc:type
           rdf:resource="http://purl.org/dc/dcmitype/StillImage" />
      </cc:Work>
    </rdf:RDF>
  </metadata>
  <defs
     id="defs863" />
  <sodipodi:namedview
     pagecolor="#ffffff"
     bordercolor="#666666"
     borderopacity="1"
     objecttolerance="10"
     gridtolerance="10"
     guidetolerance="10"
     inkscape:pageopacity="0"
     inkscape:pageshadow="2"
     inkscape:window-width="1920"
     inkscape:window-height="1051"
     id="namedview861"
     showgrid="false"
     inkscape:zoom="1.1528649"
     inkscape:cx="205.57123"
     inkscape:cy="281.76595"
     inkscape:window-x="-9"
     inkscape:window-y="-9"
     inkscape:window-maximized="1"
     inkscape:current-layer="svg859" />
  <g
     id="layer101"
     style="fill:#434343;stroke:none"
     transform="translate(-350,-300)">
    <path
       d="m 795,5556 c -39,-18 -80,-62 -99,-108 -14,-33 -16,-228 -16,-1780 l -1,-1743 -52,-25 c -69,-33 -175,-140 -215,-216 -61,-116 -62,-130 -62,-766 0,-562 1,-579 20,-598 19,-19 35,-19 503,-20 419,0 486,2 505,16 l 22,15 v 592 c 0,640 0,641 -56,754 -36,74 -128,170 -208,217 l -66,39 v 1745 1746 l -21,44 c -31,64 -95,102 -168,102 -31,-1 -69,-7 -86,-14 z m 129,-138 c 14,-20 16,-206 16,-1786 0,-1185 3,-1770 10,-1782 6,-11 43,-35 83,-53 90,-42 160,-110 201,-197 l 31,-65 3,-552 3,-553 h -60 -60 l -3,386 -3,386 -28,24 c -40,34 -90,32 -128,-5 l -29,-29 V 810 429 l -82,3 -83,3 -5,383 -5,384 -28,24 c -32,27 -66,30 -106,10 -49,-26 -51,-39 -51,-436 V 430 h -60 -60 v 523 c 0,566 2,591 55,682 36,61 116,132 183,162 31,14 65,33 75,41 16,14 17,112 17,1789 0,1760 0,1773 20,1793 27,27 75,26 94,-2 z"
       id="path846"
       inkscape:connector-curvature="0" />
    <path
       d="m 6695,5553 c -44,-23 -65,-44 -86,-85 -18,-36 -19,-72 -19,-816 v -778 l -118,-82 c -65,-44 -125,-88 -133,-98 -12,-15 -14,-142 -13,-853 1,-1113 22,-1581 78,-1803 64,-251 203,-473 429,-685 61,-58 90,-65 125,-33 l 22,21 v 2537 c 0,2448 -1,2538 -19,2577 -22,47 -64,89 -104,104 -41,16 -127,13 -162,-6 z m 121,-121 c 6,-4 16,-17 23,-29 8,-16 11,-639 11,-2447 0,-1334 -2,-2426 -5,-2426 -22,0 -175,210 -222,305 -98,193 -120,301 -143,685 -16,262 -30,1377 -23,1766 l 6,340 91,62 c 50,34 99,62 109,62 9,0 26,9 37,20 20,20 20,33 20,827 0,736 1,808 17,825 16,18 59,24 79,10 z"
       id="path848"
       inkscape:connector-curvature="0" />
    <path
       d="M 3500,5174 C 2940,5122 2448,4893 2067,4505 1397,3825 1235,2791 1662,1936 1952,1356 2492,922 3119,766 c 209,-53 280,-60 546,-60 266,0 345,8 545,59 880,223 1538,952 1671,1849 24,162 28,446 10,586 -54,404 -197,762 -427,1070 -360,482 -882,795 -1474,885 -103,15 -402,27 -490,19 z m 470,-150 c 672,-98 1262,-522 1573,-1131 75,-146 121,-268 163,-430 84,-328 87,-696 7,-1023 -181,-746 -766,-1343 -1507,-1540 -201,-53 -289,-64 -541,-64 -247,0 -365,14 -555,68 -744,209 -1313,794 -1494,1537 -39,160 -56,312 -56,494 0,350 72,656 227,958 338,661 999,1098 1743,1151 95,6 330,-4 440,-20 z"
       id="path850"
       inkscape:connector-curvature="0" />
    <path
       d="m 3505,4964 c -16,-2 -70,-9 -120,-15 -516,-65 -1023,-364 -1345,-794 -508,-680 -542,-1608 -82,-2315 83,-128 136,-194 252,-314 332,-342 744,-547 1220,-606 122,-15 371,-12 503,5 363,47 722,202 1007,432 89,72 267,254 331,338 214,280 350,599 405,950 23,151 23,433 0,580 -35,224 -91,404 -186,600 -288,595 -847,1010 -1510,1120 -90,15 -411,28 -475,19 z m 331,-68 c 50,-3 138,-15 196,-26 800,-154 1418,-778 1569,-1585 30,-159 37,-421 15,-591 -58,-456 -266,-865 -602,-1184 -513,-487 -1246,-660 -1923,-453 -731,222 -1277,867 -1376,1626 -85,659 174,1331 678,1754 275,230 594,378 957,444 74,13 283,27 350,22 25,-1 86,-5 136,-7 z"
       id="path852"
       inkscape:connector-curvature="0" />
    <path
       d="m 3548,3820 c -287,-46 -526,-209 -662,-453 -19,-34 -50,-105 -68,-157 -32,-93 -33,-99 -33,-265 0,-193 10,-243 76,-384 230,-493 845,-664 1299,-360 174,117 309,302 365,504 25,90 31,311 12,407 -72,345 -344,623 -679,693 -92,20 -236,27 -310,15 z m 372,-99 c 138,-46 220,-99 331,-210 83,-84 101,-109 147,-201 62,-127 80,-194 89,-322 14,-222 -62,-437 -216,-610 -91,-102 -256,-201 -400,-240 -112,-30 -297,-30 -410,1 -203,54 -374,177 -489,354 -153,235 -174,556 -50,800 71,141 191,275 315,350 141,86 269,118 453,113 121,-3 145,-6 230,-35 z"
       id="path854"
       inkscape:connector-curvature="0" />
    <path
       d="m 3478,3710 c -258,-64 -468,-251 -558,-497 -96,-265 -49,-553 127,-774 103,-128 248,-223 418,-270 113,-32 287,-32 400,0 169,47 316,142 416,269 178,223 225,509 129,775 -92,252 -317,447 -580,502 -98,21 -256,18 -352,-5 z m 372,-64 c 30,-9 96,-35 145,-60 271,-134 432,-433 395,-731 -46,-372 -353,-645 -725,-645 -372,0 -679,272 -725,644 -40,325 151,642 460,764 50,19 103,34 170,46 46,8 224,-3 280,-18 z"
       id="path856"
       inkscape:connector-curvature="0" />
  </g>
</svg>
