<?xml version="1.0" encoding="UTF-8" standalone="no"?>
<svg
   xmlns:dc="http://purl.org/dc/elements/1.1/"
   xmlns:cc="http://creativecommons.org/ns#"
   xmlns:rdf="http://www.w3.org/1999/02/22-rdf-syntax-ns#"
   xmlns:svg="http://www.w3.org/2000/svg"
   xmlns="http://www.w3.org/2000/svg"
   xmlns:sodipodi="http://sodipodi.sourceforge.net/DTD/sodipodi-0.dtd"
   xmlns:inkscape="http://www.inkscape.org/namespaces/inkscape"
   version="1.0"
   width="440.01892"
   height="642.35156"
   viewBox="0 0 4400.1892 6423.5156"
   preserveAspectRatio="xMidYMid meet"
   id="svg1425"
   sodipodi:docname="Screenshot_11.svg"
   inkscape:version="0.92.2 (5c3e80d, 2017-08-06)">
  <metadata
     id="metadata1431">
    <rdf:RDF>
      <cc:Work
         rdf:about="">
        <dc:format>image/svg+xml</dc:format>
        <dc:type
           rdf:resource="http://purl.org/dc/dcmitype/StillImage" />
      </cc:Work>
    </rdf:RDF>
  </metadata>
  <defs
     id="defs1429" />
  <sodipodi:namedview
     pagecolor="#ffffff"
     bordercolor="#666666"
     borderopacity="1"
     objecttolerance="10"
     gridtolerance="10"
     guidetolerance="10"
     inkscape:pageopacity="0"
     inkscape:pageshadow="2"
     inkscape:window-width="1920"
     inkscape:window-height="1051"
     id="namedview1427"
     showgrid="false"
     inkscape:zoom="0.32914923"
     inkscape:cx="219.51893"
     inkscape:cy="327.35156"
     inkscape:window-x="-9"
     inkscape:window-y="-9"
     inkscape:window-maximized="1"
     inkscape:current-layer="svg1425" />
  <g
     id="layerbg1"
     style="fill:#1e262c;stroke:none"
     transform="translate(-574.81065,-435)">
    <path
       d="M 1245,6849 C 998,6813 769,6644 655,6415 567,6235 575,6523 575,3645 V 1095 l 23,-78 c 79,-274 296,-488 574,-565 59,-16 170,-17 1603,-17 h 1540 l 80,23 c 138,40 227,94 340,207 115,115 169,201 212,340 l 28,90 v 2540 c 0,2403 -1,2544 -18,2609 -39,154 -116,284 -231,393 -123,117 -269,189 -432,213 -86,12 -2963,11 -3049,-1 z m 3083,-379 c 124,-44 214,-133 259,-257 l 23,-64 V 4730 3310 H 2770 930 v 1378 c 0,765 4,1405 9,1439 24,162 131,291 285,345 48,16 146,17 1549,18 1475,0 1498,0 1555,-20 z m 280,-4332 -3,-1033 -32,-67 c -59,-125 -180,-215 -319,-238 -82,-14 -2879,-13 -2962,0 -156,26 -271,121 -333,275 l -24,60 -3,1018 -3,1017 h 1841 1840 z"
       id="path1411"
       inkscape:connector-curvature="0" />
    <path
       d="m 1404,4711 c -66,-40 -64,-28 -64,-437 v -372 l 25,-31 c 14,-16 41,-35 60,-41 46,-15 96,1 130,41 l 25,31 v 372 c 0,363 -1,374 -21,400 -43,55 -102,69 -155,37 z"
       id="path1413"
       inkscape:connector-curvature="0" />
    <path
       d="m 1414,2646 c -17,-8 -40,-26 -52,-41 -22,-27 -22,-33 -22,-402 v -375 l 33,-33 c 19,-19 46,-37 60,-40 40,-10 76,2 114,40 l 33,33 v 375 c 0,369 0,375 -22,402 -21,26 -74,55 -100,55 -7,-1 -27,-7 -44,-14 z"
       id="path1415"
       inkscape:connector-curvature="0" />
  </g>
  <g
     id="layer101"
     style="fill:#1e262c;stroke:none"
     transform="translate(-574.81065,-435)">
    <path
       d="M 1245,6849 C 998,6813 769,6644 655,6415 567,6235 575,6523 575,3645 V 1095 l 23,-78 c 79,-274 296,-488 574,-565 59,-16 170,-17 1603,-17 h 1540 l 80,23 c 138,40 227,94 340,207 115,115 169,201 212,340 l 28,90 v 2540 c 0,2403 -1,2544 -18,2609 -39,154 -116,284 -231,393 -123,117 -269,189 -432,213 -86,12 -2963,11 -3049,-1 z m 3083,-379 c 124,-44 214,-133 259,-257 l 23,-64 V 4730 3310 H 2770 930 v 1378 c 0,765 4,1405 9,1439 24,162 131,291 285,345 48,16 146,17 1549,18 1475,0 1498,0 1555,-20 z m 280,-4332 -3,-1033 -32,-67 c -59,-125 -180,-215 -319,-238 -82,-14 -2879,-13 -2962,0 -156,26 -271,121 -333,275 l -24,60 -3,1018 -3,1017 h 1841 1840 z"
       id="path1418"
       inkscape:connector-curvature="0" />
    <path
       d="m 1404,4711 c -66,-40 -64,-28 -64,-437 v -372 l 25,-31 c 14,-16 41,-35 60,-41 46,-15 96,1 130,41 l 25,31 v 372 c 0,363 -1,374 -21,400 -43,55 -102,69 -155,37 z"
       id="path1420"
       inkscape:connector-curvature="0" />
    <path
       d="m 1414,2646 c -17,-8 -40,-26 -52,-41 -22,-27 -22,-33 -22,-402 v -375 l 33,-33 c 19,-19 46,-37 60,-40 40,-10 76,2 114,40 l 33,33 v 375 c 0,369 0,375 -22,402 -21,26 -74,55 -100,55 -7,-1 -27,-7 -44,-14 z"
       id="path1422"
       inkscape:connector-curvature="0" />
  </g>
</svg>
