<?xml version="1.0" encoding="UTF-8" standalone="no"?>
<!-- Created with Inkscape (http://www.inkscape.org/) -->

<svg
   xmlns:dc="http://purl.org/dc/elements/1.1/"
   xmlns:cc="http://creativecommons.org/ns#"
   xmlns:rdf="http://www.w3.org/1999/02/22-rdf-syntax-ns#"
   xmlns:svg="http://www.w3.org/2000/svg"
   xmlns="http://www.w3.org/2000/svg"
   xmlns:sodipodi="http://sodipodi.sourceforge.net/DTD/sodipodi-0.dtd"
   xmlns:inkscape="http://www.inkscape.org/namespaces/inkscape"
   width="26.127205mm"
   height="22.146664mm"
   viewBox="0 0 26.127205 22.146664"
   version="1.1"
   id="svg3240"
   inkscape:version="0.92.2 (5c3e80d, 2017-08-06)"
   sodipodi:docname="pancakes.svg">
  <defs
     id="defs3234" />
  <sodipodi:namedview
     id="base"
     pagecolor="#ffffff"
     bordercolor="#666666"
     borderopacity="1.0"
     inkscape:pageopacity="0.0"
     inkscape:pageshadow="2"
     inkscape:zoom="0.98994949"
     inkscape:cx="6.2520298"
     inkscape:cy="196.48423"
     inkscape:document-units="mm"
     inkscape:current-layer="layer1"
     showgrid="false"
     inkscape:window-width="1920"
     inkscape:window-height="1051"
     inkscape:window-x="-9"
     inkscape:window-y="-9"
     inkscape:window-maximized="1" />
  <metadata
     id="metadata3237">
    <rdf:RDF>
      <cc:Work
         rdf:about="">
        <dc:format>image/svg+xml</dc:format>
        <dc:type
           rdf:resource="http://purl.org/dc/dcmitype/StillImage" />
        <dc:title></dc:title>
      </cc:Work>
    </rdf:RDF>
  </metadata>
  <g
     inkscape:label="Layer 1"
     inkscape:groupmode="layer"
     id="layer1"
     transform="translate(-0.54354007,-253.4207)">
    <path
       inkscape:connector-curvature="0"
       class="st0"
       d="m 26.643216,272.20719 c -0.05292,-0.13229 -0.211667,-0.23813 -0.370417,-0.23813 h -1.613958 c 0.132291,-0.23812 0.238125,-0.52916 0.238125,-0.82021 0,-0.47625 -0.211667,-0.92604 -0.555625,-1.21708 0.343958,-0.29104 0.555625,-0.74083 0.555625,-1.21708 0,-0.47625 -0.211667,-0.92604 -0.555625,-1.21709 0.343958,-0.29104 0.555625,-0.74083 0.555625,-1.21708 0,-0.47625 -0.211667,-0.92604 -0.555625,-1.21708 0.343958,-0.29104 0.555625,-0.74084 0.555625,-1.21709 0,-0.47625 -0.211667,-0.89958 -0.529167,-1.21708 0.343958,-0.29104 0.529167,-0.74083 0.529167,-1.24354 0,-0.89958 -0.687917,-1.61396 -1.534584,-1.61396 h -5.847291 c 0.185208,-0.13229 0.370416,-0.29104 0.502708,-0.44979 0.423333,-0.50271 0.555625,-1.05833 0.396875,-1.64042 -0.105833,-0.34396 -0.3175,-0.68791 -0.635,-1.03187 0.291042,-0.21167 0.740833,-0.42334 1.164167,-0.18521 0.185208,0.10583 0.423333,0.0265 0.529166,-0.15875 0.105834,-0.18521 0.02646,-0.42333 -0.15875,-0.52917 -0.370416,-0.18521 -0.714375,-0.21166 -1.058333,-0.15875 0.02646,-0.18521 0.02646,-0.37041 0,-0.58208 -0.105833,-0.71438 -0.582083,-1.32292 -1.243542,-1.5875 -0.132291,-0.0529 -0.291041,-0.0265 -0.396875,0.0529 -0.555625,0.44979 -0.846666,1.16416 -0.740833,1.85208 0,0.0529 0.02646,0.10583 0.02646,0.18521 -0.582083,-0.0794 -1.084791,0.13229 -1.508125,0.60854 -0.291041,0.3175 -0.502708,0.76729 -0.661458,1.24354 -0.07937,-0.15875 -0.185208,-0.29104 -0.291042,-0.42333 -0.185208,-0.21167 -0.582083,-0.55563 -1.164166,-0.52917 0,0 0,-0.0265 0,-0.0265 0.07937,-0.58208 -0.15875,-1.19062 -0.635,-1.56104 -0.105834,-0.0794 -0.264584,-0.10583 -0.396875,-0.0529 -0.555625,0.21167 -0.9525,0.71438 -1.031875,1.32292 -0.02646,0.13229 -0.02646,0.23813 0,0.37042 -0.2645834,-0.0265 -0.5291668,0 -0.7672918,0.13229 -0.1852083,0.10583 -0.2645833,0.34396 -0.15875,0.52917 0.1058334,0.1852 0.3439584,0.26458 0.5291667,0.15875 0.2645831,-0.1323 0.5556251,-0.0265 0.7672911,0.10583 -0.238124,0.26458 -0.370416,0.52917 -0.449791,0.79375 -0.132292,0.47625 -0.02646,0.9525 0.343958,1.37583 0.05292,0.0529 0.105833,0.10584 0.15875,0.15875 H 4.6563409 c -0.8466667,0 -1.5345832,0.71438 -1.5345832,1.61396 0,0.50271 0.2116665,0.92604 0.5291665,1.24354 -0.3439583,0.29104 -0.5291665,0.71438 -0.5291665,1.21709 0,0.47625 0.2116665,0.92604 0.5556249,1.21708 -0.3439584,0.29104 -0.5556249,0.74083 -0.5556249,1.21708 0,0.47625 0.2116665,0.92604 0.5556249,1.21709 -0.3439584,0.29104 -0.5556249,0.74083 -0.5556249,1.21708 0,0.47625 0.2116665,0.92604 0.5556249,1.21708 -0.3439584,0.29104 -0.5556249,0.74084 -0.5556249,1.21709 0,0.29104 0.079375,0.58208 0.2381249,0.8202 H 0.95217432 c -0.15874999,0 -0.29104166,0.10584 -0.37041666,0.23813 -0.079375,0.13229 -0.0264583,0.3175 0.079375,0.42333 l 0.76729164,0.84667 c 1.2170834,1.32292 3.2543749,2.11667 5.5033333,2.11667 H 20.319674 c 2.248958,0 4.28625,-0.79375 5.503333,-2.11667 l 0.767292,-0.84667 c 0.07937,-0.0794 0.105833,-0.26458 0.05292,-0.39687 z m -2.54,-5.92667 c 0,0.44979 -0.370417,0.82021 -0.820209,0.82021 h -3.042708 v 0 c -0.02646,0 -0.05292,0 -0.07937,0 v -1.66688 c 0.02646,0 0.05292,0 0.07937,0 v 0 h 3.042708 c 0.449792,0.0265 0.820209,0.39688 0.820209,0.84667 z m -3.862917,-1.61396 v 0 c -0.02646,0 -0.05292,0 -0.07937,0 v -1.64041 h 0.07937 3.042708 c 0.449792,0 0.820209,0.37041 0.820209,0.8202 0,0.4498 -0.370417,0.82021 -0.820209,0.82021 z m -3.307292,-10.34521 c 0.291042,0.18521 0.47625,0.50271 0.529167,0.84667 0.05292,0.34396 -0.05292,0.68792 -0.264583,0.9525 0,0 0,0 0,0 -0.291042,-0.18521 -0.47625,-0.50271 -0.529167,-0.84667 -0.05292,-0.34395 0.05292,-0.68791 0.264583,-0.9525 z m -2.566458,3.88938 c 0.07937,-0.55563 0.3175,-1.16417 0.635,-1.50813 0.105833,-0.10583 0.3175,-0.37041 0.714375,-0.37041 0.291042,0 0.687917,0.13229 1.217083,0.60854 0.396875,0.34396 0.635,0.68792 0.740834,0.97896 0.07938,0.3175 0.02646,0.60854 -0.238125,0.87312 -0.635,0.74084 -2.143125,1.21709 -2.751667,0.68792 -0.291042,-0.21167 -0.396875,-0.68792 -0.3175,-1.27 z m -3.33375,-1.93146 c 0.02646,-0.21167 0.15875,-0.42333 0.3175,-0.55562 0.132292,0.1852 0.185208,0.39687 0.15875,0.635 -0.02646,0.21166 -0.15875,0.42333 -0.3175,0.55562 -0.132292,-0.18521 -0.185208,-0.42333 -0.15875,-0.635 z m 0.02646,2.83104 c -0.238125,-0.26458 -0.211666,-0.47625 -0.15875,-0.635 0.07938,-0.23812 0.264584,-0.47625 0.555625,-0.74083 0.899584,-0.79375 1.27,-0.34396 1.402292,-0.18521 0.238125,0.26458 0.423333,0.71438 0.47625,1.16417 0.05292,0.42333 -0.02646,0.79375 -0.211667,0.9525 -0.07937,0.0794 -0.185208,0.10583 -0.3175,0.13229 h -0.423335 c -0.47625,-0.0794 -1.031875,-0.37042 -1.322917,-0.68792 z m -6.4293744,3.09563 c -0.396875,0 -0.7408334,-0.37042 -0.7408334,-0.82021 0,-0.44979 0.3175,-0.82021 0.7408334,-0.82021 h 7.7258334 c 0.07938,0 0.15875,0.0265 0.238125,0.0265 0.07938,0 0.15875,0 0.238125,-0.0265 h 10.530416 c 0.396875,0 0.740834,0.37042 0.740834,0.82021 0,0.44979 -0.3175,0.82021 -0.740834,0.82021 h -0.105833 -3.042708 -0.47625 c -0.211667,0 -0.396875,0.18521 -0.396875,0.39687 v 5.29167 c 0,0.21167 -0.15875,0.39687 -0.343959,0.39687 -0.185208,0 -0.343958,-0.1852 -0.343958,-0.39687 v -5.29167 c 0,-0.21166 -0.185208,-0.39687 -0.396875,-0.39687 h -0.105833 -0.635 -0.264584 c -0.211666,0 -0.396875,0.18521 -0.396875,0.39687 v 2.54 c 0,0.21167 -0.15875,0.39688 -0.343958,0.39688 -0.185208,0 -0.343958,-0.18521 -0.343958,-0.39688 v -2.54 c 0,-0.21166 -0.185209,-0.39687 -0.396875,-0.39687 H 4.7092576 Z m 13.0174994,0.79375 h 0.211667 v 1.64041 h -0.211669 z m -13.7318764,0.84666 c 0,-0.44979 0.3704166,-0.8202 0.8202083,-0.8202 H 15.398424 v 1.64041 H 4.7357159 c -0.4497917,0 -0.8202083,-0.37041 -0.8202083,-0.82021 z m 0,2.43417 c 0,-0.44979 0.3704166,-0.82021 0.8202083,-0.82021 H 15.424882 c 0.132292,0.52917 0.555625,0.89959 1.11125,0.89959 0.555625,0 0.978959,-0.39688 1.11125,-0.89959 h 0.264584 v 1.64042 H 4.7621742 c -0.47625,0 -0.8466666,-0.37042 -0.8466666,-0.82021 z m 0,2.43417 c 0,-0.44979 0.3704166,-0.82021 0.8202083,-0.82021 H 17.885507 v 0.0265 c 0,0.66146 0.502709,1.19062 1.137709,1.19062 0.635,0 1.137708,-0.52916 1.137708,-1.19062 v -0.0529 c 0.02646,0 0.05292,0 0.07937,0 v 0 h 3.042708 c 0.449792,0 0.820209,0.37042 0.820209,0.82021 0,0.44979 -0.370417,0.82021 -0.820209,0.82021 H 4.7357159 c -0.4497917,0.0265 -0.8202083,-0.34396 -0.8202083,-0.79375 z m 0,2.43416 c 0,-0.44979 0.3704166,-0.8202 0.8202083,-0.8202 H 23.283007 c 0.449792,0 0.820209,0.37041 0.820209,0.8202 0,0.4498 -0.370417,0.82021 -0.820209,0.82021 H 4.7357159 c -0.4497917,0 -0.8202083,-0.37041 -0.8202083,-0.82021 z m 21.2989584,1.79917 c -1.031875,1.13771 -2.936875,1.85208 -4.92125,1.85208 H 6.9052992 c -1.984375,0 -3.8629165,-0.71437 -4.9212499,-1.85208 l -0.15875,-0.18521 h 2.8839583 18.5472914 2.090208 z"
       id="path2062"
       style="stroke-width:0.26458332" />
  </g>
</svg>
